<?xml version="1.0" encoding="utf-8"?>
<!-- Generator: Adobe Illustrator 21.0.2, SVG Export Plug-In . SVG Version: 6.00 Build 0)  -->
<svg version="1.1" id="Layer_1" xmlns="http://www.w3.org/2000/svg" xmlns:xlink="http://www.w3.org/1999/xlink" x="0px" y="0px"
	 viewBox="0 0 464 203" style="enable-background:new 0 0 464 203;" xml:space="preserve">
<style type="text/css">
	.st0{fill:#FF2400;}
</style>
<g>
	<path class="st0" d="M124.9,163.3V95.8h13.2c9.5,0,16.4,0.8,20.7,2.4c6.2,2.3,11,6.3,14.5,11.9c3.5,5.7,5.2,12.4,5.2,20.3
		c0,6.8-1.4,12.7-4.1,17.9c-2.8,5.1-6.3,8.9-10.7,11.4c-4.4,2.5-10.6,3.7-18.5,3.7H124.9z M131,157h7.4c8.8,0,14.9-0.6,18.3-1.7
		c4.8-1.7,8.5-4.6,11.3-8.9c2.7-4.3,4.1-9.6,4.1-15.8c0-6.5-1.5-12.1-4.5-16.7c-3-4.6-7.1-7.8-12.4-9.5c-4-1.3-10.5-1.9-19.7-1.9
		H131V157z"/>
	<path class="st0" d="M205.9,112.1c7.3,0,13.3,2.8,18,8.4c4.3,5.1,6.5,11.1,6.5,18.1c0,7-2.3,13.1-6.9,18.3
		c-4.6,5.2-10.5,7.8-17.7,7.8c-7.2,0-13.1-2.6-17.7-7.8c-4.6-5.2-6.9-11.3-6.9-18.3c0-6.9,2.2-12.9,6.5-18
		C192.6,114.9,198.7,112.1,205.9,112.1z M205.9,118.4c-5,0-9.4,2-13,5.9c-3.6,3.9-5.4,8.7-5.4,14.3c0,3.6,0.8,7,2.5,10.1
		c1.6,3.1,3.9,5.5,6.7,7.2c2.8,1.7,5.9,2.5,9.2,2.5c3.4,0,6.4-0.8,9.2-2.5c2.8-1.7,5-4.1,6.7-7.2c1.6-3.1,2.5-6.5,2.5-10.1
		c0-5.6-1.8-10.4-5.4-14.3C215.2,120.3,210.9,118.4,205.9,118.4z"/>
	<path class="st0" d="M257.7,112.1c7.3,0,13.3,2.8,18,8.4c4.3,5.1,6.5,11.1,6.5,18.1c0,7-2.3,13.1-6.9,18.3
		c-4.6,5.2-10.5,7.8-17.7,7.8c-7.2,0-13.1-2.6-17.7-7.8c-4.6-5.2-6.9-11.3-6.9-18.3c0-6.9,2.2-12.9,6.5-18
		C244.4,114.9,250.5,112.1,257.7,112.1z M257.7,118.4c-5,0-9.4,2-13,5.9c-3.6,3.9-5.4,8.7-5.4,14.3c0,3.6,0.8,7,2.5,10.1
		c1.6,3.1,3.9,5.5,6.7,7.2c2.8,1.7,5.9,2.5,9.2,2.5c3.4,0,6.4-0.8,9.2-2.5c2.8-1.7,5-4.1,6.7-7.2c1.6-3.1,2.5-6.5,2.5-10.1
		c0-5.6-1.8-10.4-5.4-14.3C267.1,120.3,262.7,118.4,257.7,118.4z"/>
	<path class="st0" d="M334.3,94.1v69.3h-6v-8.6c-2.5,3.3-5.4,5.7-8.5,7.4c-3.2,1.7-6.6,2.5-10.4,2.5c-6.7,0-12.4-2.6-17.1-7.7
		c-4.7-5.1-7.1-11.4-7.1-18.7c0-7.2,2.4-13.3,7.1-18.5c4.8-5.1,10.5-7.7,17.2-7.7c3.9,0,7.4,0.9,10.5,2.6c3.1,1.7,5.9,4.4,8.2,7.9
		V94.1H334.3z M310.1,118.3c-3.4,0-6.5,0.9-9.3,2.6c-2.9,1.8-5.1,4.2-6.8,7.4c-1.7,3.2-2.5,6.5-2.5,10.1c0,3.5,0.8,6.9,2.5,10.1
		c1.7,3.2,4,5.7,6.8,7.5c2.9,1.8,5.9,2.7,9.2,2.7c3.3,0,6.5-0.9,9.4-2.7c3-1.8,5.2-4.2,6.8-7.2c1.6-3,2.4-6.4,2.4-10.2
		c0-5.8-1.8-10.6-5.4-14.5C319.7,120.2,315.3,118.3,310.1,118.3z"/>
	<path class="st0" d="M364,112.1c7.3,0,13.3,2.8,18,8.4c4.3,5.1,6.5,11.1,6.5,18.1c0,7-2.3,13.1-6.9,18.3
		c-4.6,5.2-10.5,7.8-17.7,7.8c-7.2,0-13.1-2.6-17.7-7.8c-4.6-5.2-6.9-11.3-6.9-18.3c0-6.9,2.2-12.9,6.5-18
		C350.7,114.9,356.8,112.1,364,112.1z M364,118.4c-5,0-9.4,2-13,5.9c-3.6,3.9-5.4,8.7-5.4,14.3c0,3.6,0.8,7,2.5,10.1
		c1.6,3.1,3.9,5.5,6.7,7.2c2.8,1.7,5.9,2.5,9.2,2.5c3.4,0,6.4-0.8,9.2-2.5c2.8-1.7,5-4.1,6.7-7.2c1.6-3.1,2.5-6.5,2.5-10.1
		c0-5.6-1.8-10.4-5.4-14.3C373.4,120.3,369,118.4,364,118.4z"/>
	<path class="st0" d="M387.2,113.4h6.2l14.4,36.3l15-36.3h1.1l15.1,36.3l14.7-36.3h6.3l-20.4,50h-1.1l-15-35.8l-15,35.8h-1.1
		L387.2,113.4z"/>
</g>
<g>
	<path class="st0" d="M142.5,29.2c0,0-3.1-2.7-12.1-1.8c-9,0.9-7.6,2.2-13.5,1.3s-11.2-3.1-14.4-9.9S97.2,0,88.7,0
		S67.1,5.4,53.2,22.9s-2.7,40.9,0.4,50.8s8.5,18.4,0.4,21.1C46,97.5,41,84.4,28.9,84.4s-26,8.1-26,21.6s4,10.8,6.7,21.1
		s6.7,27.8,30.1,36.8c0,0,4.5,1.3,4.5,13.9c0,0,0,6.7-2.2,9.4s-6.3,4-4.5,9c1.8,4.9,4,5.8,6.7,5.8s4-0.9,5.8-0.9
		c1.8,0,3.1,1.8,6.7,1.8c3.6,0,4.9-2.7,7.2-3.1c2.2-0.4,4.5,2.7,8.5,1.3c4-1.3,6.7-1.8,7.2-4.5c0.4-2.7-5.8-7.2-5.8-7.2
		s-5.4-4-5.4-9s-0.9-14.8,4.5-18c5.4-3.1,26.9-12.6,30.5-42.2c1.3-12.6-9.9-39.5-9.9-39.5s-4-8.1,0.4-12.6s5.8-6.3,11.7-4.9
		c5.8,1.3,13.5,4.5,18.9,4.5s7.2-0.4,7.2-0.4s3.6-0.4,1.8,3.6c-1.8,4,1.3,4,3.1,2.7s8.5-4.9,13.9-20.2
		C156,38.2,142.5,29.2,142.5,29.2z M70,189.8c1.3,1.3,6.3,5.4,4.9,6.3c-1.3,0.9-2.7,1.3-6.7,1.3c-4,0-4.5-1.3-7.6,0.9
		c-3.1,2.2-4.5,1.3-4.5,1.3c-4.9,0-8.1-3.1-9.4-3.1c-1.3,0-2.2,2.2-3.6,2.7c-1.3,0.4-4-1.8-4.5-3.6s1.8-4,4.5-7.2
		c2.7-3.1,2.2-3.1,2.2-12.6s0.9-9.4,0.9-9.4c5.2,3.8,3.8,10.6,3.8,12.8s-4,11.2,5.4,11.7c9.4,0.4,3.6-20.2,3.6-20.2
		c1.8,0.4,2.7,1.8,4,3.6s0,8.1-0.4,9.9c-0.4,1.8,0.9,1.8,0.9,1.8C65.3,186.4,70,189.8,70,189.8z M56.3,170.7c0.9-1.3,1.3,0,1.3,0
		c0.9,4,1.8,11.2,1.3,13.9c-0.4,2.7-4.5,2.7-5.4,0C52.7,181.9,55.4,172,56.3,170.7z M97.6,124.9c-0.9,3.6-10.8,33.2-43.1,33.7
		s-40.4-22.5-41.3-28.7c-0.9-6.3,3.1-18.4,4.5-21.6s1.3-4.5,0.4-4.9c-0.9-0.4-2.2-0.4-4.9,2.7c-3.6,4-3.1,1.8-3.1,1.8
		c0-4.5,2.7-8.5,4.9-11.7s10.8-10.3,20.2-3.6s9.4,17.1,18,14.8c15.7-2.7,7.2-23.4,7.2-23.4s-9-25.2-10.3-38.2
		c-1.3-13,10.8-23.4,18.9-30.5s13.9-8.5,19.8-8.5C94.5,6.7,94,13,94,13c-10.3-1.3-15.7,13.9-21.6,20.2c-5.8,6.3-11.7,5.4-12.1,14.4
		s19.3,26.5,31,43.1S98.5,121.3,97.6,124.9z M139,66.9c0,0-1.8,3.1-2.7,2.7c-0.9-0.4-0.4-2.2-0.4-2.2s0-1.8-1.3-4
		c-1.3-2.2-1.8-3.6-1.8-7.2c0-3.6,0.9-3.6-0.4-4.9c-1.3-1.3-3.6,1.3-5.4,1.8c-1.8,0.4-4.9,0.9-12.1-1.8c-7.2-2.7-9-4.5-14.8-4.5
		c-5.8,0-12.1,1.8-13.9,0.4c-1.8-1.3-1.8-3.1-2.7-2.7c-0.9,0.4-1.3,1.3-0.4,2.7c0.9,1.3,2.2,3.1,5.4,3.1s7.6-1.3,14.8,0.4
		c7.2,1.8,13.9,5.4,17.5,5.8c3.6,0.4,5.8-0.4,6.7,0.4c0.9,0.9,1.3,3.1,1.8,4.5c0.4,1.3,0.4,1.8,0.4,1.8s-4,1.8-11.7-0.4
		s-12.1-5.4-18-4.9C94,58.4,89.5,62,86,61.5c-3.6-0.4-16.2-3.1-19.3-15.7c0,0-0.9-3.6,4.9-8.1c5.8-4.5,9.4-9.9,11.2-12.6
		s4-7.6,9.4-7.6c5.4,0,5.4,4.5,9.9,8.1c4.5,3.6,9.4,6.3,21.6,5.4c12.1-0.9,21.1,7.2,21.1,16.2S145.2,57,139,66.9z"/>
	<path class="st0" d="M68.9,109.1c0,0,2.7,12.1-2.7,20.7c-3.1,4.9-6.3,4-6.3,4s2.2-3.6,0.4-8.1c0,0-1.3,9.9-6.7,12.1
		c-5.4,2.2-17.1,2.7-16.6,6.3c0,0,12.6,5.4,20.7-4.9c0,0,2.2,0.9,4.9,0c2.7-0.9,8.5-3.6,9.4-17.5S68.9,109.1,68.9,109.1z"/>
	<path class="st0" d="M93.6,30.5c-4.5-3.1-8.1,1.8-8.1,1.8s-3.6,3.6,0.4,6.7c4,3.1,7.2-0.4,7.2-0.4S98.1,33.7,93.6,30.5z M91.8,37.3
		c-1.8,2.2-3.1,0.9-3.1,0.9c-0.9-0.9,1.8-1.8,2.2-2.2c0.4-0.4,0.4-1.3,0.4-2.2s0-2.7,1.3-1.8C94,32.8,93.6,35.5,91.8,37.3z"/>
</g>
<g>
	<path class="st0" d="M405.1,181.2c0.4,0,0.8,0.1,1,0.4c0.3,0.3,0.4,0.6,0.4,1.1c0,0.4-0.1,0.8-0.4,1.1c-0.3,0.3-0.6,0.4-1,0.4
		c-0.4,0-0.8-0.1-1-0.4c-0.3-0.3-0.4-0.6-0.4-1.1c0-0.4,0.1-0.8,0.4-1.1C404.3,181.4,404.7,181.2,405.1,181.2z"/>
	<path class="st0" d="M422,173.5l-1.3,0.8c-1.2-1.5-2.7-2.3-4.7-2.3c-1.6,0-2.9,0.5-4,1.5c-1.1,1-1.6,2.3-1.6,3.7
		c0,1,0.2,1.9,0.7,2.7c0.5,0.8,1.2,1.5,2,2c0.8,0.5,1.8,0.7,2.8,0.7c1.9,0,3.5-0.8,4.7-2.3l1.3,0.9c-0.6,0.9-1.5,1.7-2.5,2.2
		c-1.1,0.5-2.3,0.8-3.6,0.8c-2.1,0-3.8-0.7-5.2-2c-1.4-1.3-2-2.9-2-4.8c0-1.3,0.3-2.4,1-3.5c0.6-1.1,1.5-1.9,2.6-2.5
		c1.1-0.6,2.4-0.9,3.7-0.9c0.9,0,1.7,0.1,2.5,0.4c0.8,0.3,1.5,0.6,2.1,1C421.1,172.3,421.6,172.8,422,173.5z"/>
	<path class="st0" d="M430.6,170.4c2,0,3.7,0.7,5,2.2c1.2,1.3,1.8,2.9,1.8,4.7c0,1.8-0.6,3.4-1.9,4.8c-1.3,1.4-2.9,2.1-4.9,2.1
		c-2,0-3.7-0.7-4.9-2.1c-1.3-1.4-1.9-3-1.9-4.8c0-1.8,0.6-3.4,1.8-4.7C426.9,171.2,428.6,170.4,430.6,170.4z M430.6,172.1
		c-1.4,0-2.6,0.5-3.6,1.6c-1,1-1.5,2.3-1.5,3.8c0,0.9,0.2,1.8,0.7,2.7c0.5,0.8,1.1,1.5,1.9,1.9c0.8,0.4,1.6,0.7,2.6,0.7
		c0.9,0,1.8-0.2,2.6-0.7c0.8-0.4,1.4-1.1,1.9-1.9c0.5-0.8,0.7-1.7,0.7-2.7c0-1.5-0.5-2.7-1.5-3.8C433.2,172.6,432,172.1,430.6,172.1
		z"/>
	<path class="st0" d="M439.7,170.8h1.7v2.3c0.6-0.8,1.2-1.4,1.8-1.8c0.9-0.5,1.8-0.8,2.7-0.8c0.6,0,1.2,0.1,1.8,0.4
		c0.6,0.2,1,0.6,1.4,1s0.7,1,0.9,1.8c0.6-1,1.3-1.8,2.1-2.3c0.8-0.5,1.7-0.8,2.7-0.8c0.9,0,1.7,0.2,2.4,0.7c0.7,0.5,1.2,1.1,1.5,1.9
		s0.5,2,0.5,3.7v7.2h-1.7v-7.2c0-1.4-0.1-2.4-0.3-2.9c-0.2-0.5-0.5-0.9-1-1.3c-0.5-0.3-1.1-0.5-1.7-0.5c-0.8,0-1.6,0.2-2.2,0.7
		c-0.7,0.5-1.2,1.1-1.5,1.9c-0.3,0.8-0.5,2.1-0.5,4v5.1h-1.7v-6.7c0-1.6-0.1-2.7-0.3-3.2c-0.2-0.6-0.5-1-1-1.4
		c-0.5-0.3-1.1-0.5-1.7-0.5c-0.8,0-1.5,0.2-2.2,0.7c-0.7,0.5-1.2,1.1-1.5,1.9c-0.3,0.8-0.5,2-0.5,3.7v5.6h-1.7V170.8z"/>
</g>
</svg>
