<?xml version="1.0" encoding="utf-8"?>
<!-- Generator: Adobe Illustrator 21.0.2, SVG Export Plug-In . SVG Version: 6.00 Build 0)  -->
<svg version="1.1" id="Layer_1" xmlns="http://www.w3.org/2000/svg" xmlns:xlink="http://www.w3.org/1999/xlink" x="0px" y="0px"
	 viewBox="0 0 269 237" style="enable-background:new 0 0 269 237;" xml:space="preserve">
<style type="text/css">
	.st0{fill:#FF2400;}
</style>
<g>
	<g>
		<path class="st0" d="M141.1,31.6c0,0-3.1-2.7-12.1-1.8s-7.6,2.2-13.4,1.3c-5.8-0.9-11.2-3.1-14.3-9.8c-3.1-6.7-5.4-18.8-13.9-18.8
			S65.9,7.9,52.1,25.4s-2.7,40.7,0.4,50.5c3.1,9.8,8.5,18.3,0.4,21c-8.1,2.7-13-10.3-25-10.3S2,94.7,2,108.1s4,10.7,6.7,21
			s6.7,27.7,30,36.7c0,0,4.5,1.3,4.5,13.9c0,0,0,6.7-2.2,9.4s-6.3,4-4.5,8.9c1.8,4.9,4,5.8,6.7,5.8s4-0.9,5.8-0.9s3.1,1.8,6.7,1.8
			c3.6,0,4.9-2.7,7.2-3.1c2.2-0.4,4.5,2.7,8.5,1.3c4-1.3,6.7-1.8,7.2-4.5c0.4-2.7-5.8-7.2-5.8-7.2s-5.4-4-5.4-8.9
			c0-4.9-0.9-14.8,4.5-17.9s26.8-12.5,30.4-42c1.3-12.5-9.8-39.4-9.8-39.4s-4-8.1,0.4-12.5s5.8-6.3,11.6-4.9
			c5.8,1.3,13.4,4.5,18.8,4.5s7.2-0.4,7.2-0.4s3.6-0.4,1.8,3.6s1.3,4,3.1,2.7s8.5-4.9,13.9-20.1C154.5,40.6,141.1,31.6,141.1,31.6z
			 M68.8,191.5c1.3,1.3,6.3,5.4,4.9,6.3c-1.3,0.9-2.7,1.3-6.7,1.3c-4,0-4.5-1.3-7.6,0.9c-3.1,2.2-4.5,1.3-4.5,1.3
			c-4.9,0-8.1-3.1-9.4-3.1c-1.3,0-2.2,2.2-3.6,2.7c-1.3,0.4-4-1.8-4.5-3.6c-0.4-1.8,1.8-4,4.5-7.2c2.7-3.1,2.2-3.1,2.2-12.5
			c0-9.4,0.9-9.4,0.9-9.4c5.1,3.8,3.8,10.5,3.8,12.7c0,2.2-4,11.2,5.4,11.6c9.4,0.4,3.6-20.1,3.6-20.1c1.8,0.4,2.7,1.8,4,3.6
			c1.3,1.8,0,8.1-0.4,9.8c-0.4,1.8,0.9,1.8,0.9,1.8C64.1,188.2,68.8,191.5,68.8,191.5z M55.2,172.5c0.9-1.3,1.3,0,1.3,0
			c0.9,4,1.8,11.2,1.3,13.9c-0.4,2.7-4.5,2.7-5.4,0C51.6,183.7,54.3,173.9,55.2,172.5z M96.3,126.9c-0.9,3.6-10.7,33.1-42.9,33.5
			s-40.3-22.4-41.1-28.6c-0.9-6.3,3.1-18.3,4.5-21.5c1.3-3.1,1.3-4.5,0.4-4.9c-0.9-0.4-2.2-0.4-4.9,2.7c-3.6,4-3.1,1.8-3.1,1.8
			c0-4.5,2.7-8.5,4.9-11.6c2.2-3.1,10.7-10.3,20.1-3.6c9.4,6.7,9.4,17,17.9,14.8c15.7-2.7,7.2-23.3,7.2-23.3s-8.9-25-10.3-38
			s10.7-23.3,18.8-30.4s13.9-8.5,19.7-8.5s5.4,6.3,5.4,6.3c-10.3-1.3-15.7,13.9-21.5,20.1S59.7,41,59.2,50
			c-0.4,8.9,19.2,26.4,30.9,42.9S97.2,123.3,96.3,126.9z M137.5,69.2c0,0-1.8,3.1-2.7,2.7c-0.9-0.4-0.4-2.2-0.4-2.2s0-1.8-1.3-4
			c-1.3-2.2-1.8-3.6-1.8-7.2s0.9-3.6-0.4-4.9c-1.3-1.3-3.6,1.3-5.4,1.8c-1.8,0.4-4.9,0.9-12.1-1.8c-7.2-2.7-8.9-4.5-14.8-4.5
			s-12.1,1.8-13.9,0.4c-1.8-1.3-1.8-3.1-2.7-2.7c-0.9,0.4-1.3,1.3-0.4,2.7c0.9,1.3,2.2,3.1,5.4,3.1s7.6-1.3,14.8,0.4
			c7.2,1.8,13.9,5.4,17.4,5.8c3.6,0.4,5.8-0.4,6.7,0.4c0.9,0.9,1.3,3.1,1.8,4.5c0.4,1.3,0.4,1.8,0.4,1.8s-4,1.8-11.6-0.4
			c-7.6-2.2-12.1-5.4-17.9-4.9c-5.8,0.4-10.3,4-13.9,3.6c-3.6-0.4-16.1-3.1-19.2-15.7c0,0-0.9-3.6,4.9-8.1s9.4-9.8,11.2-12.5
			c1.8-2.7,4-7.6,9.4-7.6c5.4,0,5.4,4.5,9.8,8.1s9.4,6.3,21.5,5.4c12.1-0.9,21,7.2,21,16.1S143.7,59.4,137.5,69.2z"/>
		<path class="st0" d="M67.7,111.3c0,0,2.7,12.1-2.7,20.6c-3.1,4.9-6.3,4-6.3,4s2.2-3.6,0.4-8.1c0,0-1.3,9.8-6.7,12.1
			c-5.4,2.2-17,2.7-16.5,6.3c0,0,12.5,5.4,20.6-4.9c0,0,2.2,0.9,4.9,0c2.7-0.9,8.5-3.6,9.4-17.4C71.7,109.9,67.7,111.3,67.7,111.3z"
			/>
		<path class="st0" d="M92.3,33c-4.5-3.1-8.1,1.8-8.1,1.8s-3.6,3.6,0.4,6.7c4,3.1,7.2-0.4,7.2-0.4S96.8,36.1,92.3,33z M90.5,39.7
			c-1.8,2.2-3.1,0.9-3.1,0.9c-0.9-0.9,1.8-1.8,2.2-2.2c0.4-0.4,0.4-1.3,0.4-2.2c0-0.9,0-2.7,1.3-1.8C92.8,35.2,92.3,37.9,90.5,39.7z
			"/>
	</g>
	<g>
		<g>
			<path class="st0" d="M124.8,154.4V98.6h10.9c7.9,0,13.6,0.7,17.1,2c5.1,1.9,9.1,5.2,12,9.9c2.9,4.7,4.3,10.3,4.3,16.7
				c0,5.6-1.1,10.5-3.4,14.8c-2.3,4.2-5.2,7.4-8.9,9.4c-3.6,2-8.7,3-15.3,3H124.8z M129.8,149.1h6.1c7.3,0,12.3-0.5,15.1-1.4
				c4-1.4,7.1-3.8,9.3-7.4c2.3-3.6,3.4-7.9,3.4-13c0-5.4-1.2-10-3.7-13.8c-2.5-3.8-5.9-6.4-10.3-7.8c-3.3-1.1-8.7-1.6-16.3-1.6h-3.7
				V149.1z"/>
			<path class="st0" d="M191.7,112c6,0,11,2.3,14.9,6.9c3.6,4.2,5.4,9.2,5.4,14.9c0,5.8-1.9,10.8-5.7,15.1
				c-3.8,4.3-8.6,6.5-14.6,6.5c-6,0-10.8-2.2-14.6-6.5c-3.8-4.3-5.7-9.4-5.7-15.1c0-5.7,1.8-10.7,5.4-14.9
				C180.7,114.4,185.7,112,191.7,112z M191.7,117.2c-4.2,0-7.7,1.6-10.7,4.9c-3,3.3-4.5,7.2-4.5,11.8c0,3,0.7,5.8,2,8.3
				c1.4,2.6,3.2,4.6,5.5,6c2.3,1.4,4.9,2.1,7.6,2.1c2.8,0,5.3-0.7,7.6-2.1c2.3-1.4,4.2-3.4,5.5-6c1.4-2.6,2-5.4,2-8.3
				c0-4.6-1.5-8.6-4.5-11.8C199.4,118.9,195.8,117.2,191.7,117.2z"/>
			<path class="st0" d="M234.5,112c6,0,11,2.3,14.9,6.9c3.6,4.2,5.4,9.2,5.4,14.9c0,5.8-1.9,10.8-5.7,15.1
				c-3.8,4.3-8.6,6.5-14.6,6.5c-6,0-10.8-2.2-14.6-6.5c-3.8-4.3-5.7-9.4-5.7-15.1c0-5.7,1.8-10.7,5.4-14.9
				C223.5,114.4,228.5,112,234.5,112z M234.5,117.2c-4.2,0-7.7,1.6-10.7,4.9c-3,3.3-4.5,7.2-4.5,11.8c0,3,0.7,5.8,2,8.3
				c1.4,2.6,3.2,4.6,5.5,6c2.3,1.4,4.9,2.1,7.6,2.1c2.8,0,5.3-0.7,7.6-2.1c2.3-1.4,4.2-3.4,5.5-6c1.4-2.6,2-5.4,2-8.3
				c0-4.6-1.5-8.6-4.5-11.8C242.2,118.9,238.6,117.2,234.5,117.2z"/>
		</g>
		<g>
			<path class="st0" d="M165.4,157.3v57h-4.9v-7.1c-2.1,2.7-4.4,4.7-7,6.1c-2.6,1.4-5.4,2-8.5,2c-5.5,0-10.2-2.1-14-6.3
				c-3.9-4.2-5.8-9.4-5.8-15.4c0-5.9,2-11,5.9-15.2c3.9-4.2,8.6-6.3,14.1-6.3c3.2,0,6.1,0.7,8.6,2.2c2.6,1.4,4.8,3.6,6.8,6.5v-23.4
				H165.4z M145.5,177.2c-2.8,0-5.3,0.7-7.7,2.2c-2.3,1.4-4.2,3.5-5.6,6.1c-1.4,2.6-2.1,5.4-2.1,8.3c0,2.9,0.7,5.7,2.1,8.3
				c1.4,2.6,3.3,4.7,5.6,6.2c2.4,1.5,4.9,2.2,7.6,2.2c2.7,0,5.3-0.7,7.8-2.2c2.4-1.5,4.3-3.4,5.6-5.9c1.3-2.5,2-5.3,2-8.4
				c0-4.8-1.5-8.7-4.4-11.9C153.4,178.8,149.8,177.2,145.5,177.2z"/>
			<path class="st0" d="M189.9,172.1c6,0,10.9,2.3,14.8,6.9c3.6,4.2,5.4,9.1,5.4,14.9c0,5.7-1.9,10.8-5.7,15.1
				c-3.8,4.3-8.6,6.4-14.5,6.4c-5.9,0-10.8-2.1-14.6-6.4c-3.8-4.3-5.7-9.3-5.7-15.1c0-5.7,1.8-10.6,5.4-14.8
				C179,174.4,183.9,172.1,189.9,172.1z M189.9,177.3c-4.1,0-7.7,1.6-10.7,4.9c-3,3.3-4.5,7.2-4.5,11.8c0,3,0.7,5.7,2,8.3
				c1.4,2.6,3.2,4.6,5.5,6c2.3,1.4,4.8,2.1,7.6,2.1c2.8,0,5.3-0.7,7.6-2.1c2.3-1.4,4.1-3.4,5.5-6c1.4-2.6,2-5.3,2-8.3
				c0-4.6-1.5-8.5-4.5-11.8C197.6,178.9,194,177.3,189.9,177.3z"/>
			<path class="st0" d="M209,173.1h5.1L226,203l12.4-29.9h0.9l12.4,29.9l12.1-29.9h5.2l-16.8,41.1h-0.9l-12.4-29.5l-12.4,29.5h-0.9
				L209,173.1z"/>
			<g>
				<path class="st0" d="M223.7,229c0.3,0,0.6,0.1,0.9,0.4c0.2,0.2,0.4,0.5,0.4,0.9c0,0.3-0.1,0.6-0.4,0.9c-0.2,0.2-0.5,0.4-0.9,0.4
					c-0.3,0-0.6-0.1-0.9-0.4c-0.2-0.2-0.4-0.5-0.4-0.9c0-0.3,0.1-0.6,0.4-0.9C223.1,229.1,223.4,229,223.7,229z"/>
				<path class="st0" d="M237.6,222.6l-1.1,0.7c-1-1.3-2.2-1.9-3.9-1.9c-1.3,0-2.4,0.4-3.3,1.3c-0.9,0.8-1.3,1.9-1.3,3.1
					c0,0.8,0.2,1.5,0.6,2.2c0.4,0.7,0.9,1.2,1.6,1.6c0.7,0.4,1.5,0.6,2.3,0.6c1.6,0,2.9-0.6,3.9-1.9l1.1,0.7
					c-0.5,0.8-1.2,1.4-2.1,1.8c-0.9,0.4-1.9,0.6-3,0.6c-1.7,0-3.1-0.5-4.2-1.6c-1.1-1.1-1.7-2.4-1.7-4c0-1,0.3-2,0.8-2.9
					c0.5-0.9,1.2-1.6,2.2-2.1c0.9-0.5,1.9-0.8,3.1-0.8c0.7,0,1.4,0.1,2.1,0.3c0.7,0.2,1.2,0.5,1.7,0.9
					C236.9,221.6,237.3,222.1,237.6,222.6z"/>
				<path class="st0" d="M244.7,220.1c1.7,0,3,0.6,4.1,1.8c1,1.1,1.5,2.4,1.5,3.9c0,1.5-0.5,2.8-1.6,4c-1.1,1.1-2.4,1.7-4.1,1.7
					c-1.7,0-3-0.6-4.1-1.7c-1.1-1.1-1.6-2.4-1.6-4c0-1.5,0.5-2.8,1.5-3.9C241.6,220.7,243,220.1,244.7,220.1z M244.7,221.5
					c-1.2,0-2.1,0.4-3,1.3c-0.8,0.9-1.2,1.9-1.2,3.1c0,0.8,0.2,1.5,0.6,2.2c0.4,0.7,0.9,1.2,1.5,1.6c0.6,0.4,1.4,0.6,2.1,0.6
					c0.8,0,1.5-0.2,2.1-0.6c0.6-0.4,1.2-0.9,1.5-1.6c0.4-0.7,0.6-1.4,0.6-2.2c0-1.2-0.4-2.2-1.2-3.1
					C246.8,221.9,245.8,221.5,244.7,221.5z"/>
				<path class="st0" d="M252.2,220.4h1.4v1.9c0.5-0.7,1-1.2,1.5-1.5c0.7-0.4,1.4-0.6,2.2-0.6c0.5,0,1,0.1,1.5,0.3
					c0.5,0.2,0.9,0.5,1.2,0.8c0.3,0.3,0.6,0.8,0.8,1.5c0.5-0.8,1-1.5,1.7-1.9c0.7-0.4,1.4-0.7,2.2-0.7c0.7,0,1.4,0.2,2,0.6
					s1,0.9,1.3,1.6c0.3,0.7,0.4,1.7,0.4,3v5.9h-1.4v-5.9c0-1.2-0.1-2-0.2-2.4c-0.2-0.4-0.4-0.8-0.8-1c-0.4-0.3-0.9-0.4-1.4-0.4
					c-0.7,0-1.3,0.2-1.8,0.6c-0.6,0.4-1,0.9-1.2,1.6c-0.3,0.7-0.4,1.8-0.4,3.3v4.2h-1.4v-5.5c0-1.3-0.1-2.2-0.2-2.7
					c-0.2-0.5-0.4-0.8-0.8-1.1c-0.4-0.3-0.9-0.4-1.4-0.4c-0.6,0-1.2,0.2-1.8,0.6c-0.6,0.4-1,0.9-1.2,1.6s-0.4,1.7-0.4,3v4.6h-1.4
					V220.4z"/>
			</g>
		</g>
	</g>
</g>
</svg>
